<svg width="40" height="40" viewBox="0 0 40 40" fill="none" xmlns="http://www.w3.org/2000/svg">
<path fill-rule="evenodd" clip-rule="evenodd" d="M21.6667 31.6667V29.8819C24.9725 29.409 27.8313 27.5503 29.6356 24.9131C34.159 24.2898 36.6667 20.3714 36.6667 15V10C36.6667 8.15905 35.1743 6.66667 33.3333 6.66667H31.2207C30.6444 5.67033 29.5671 5 28.3333 5H11.6667C10.4329 5 9.35562 5.67033 8.77927 6.66667H6.66667C4.82572 6.66667 3.33333 8.15905 3.33333 10V15C3.33333 20.3714 5.84097 24.2898 10.3644 24.9131C12.1687 27.5503 15.0275 29.409 18.3333 29.8819V31.6667H16.6667C14.8257 31.6667 13.3333 33.159 13.3333 35H26.6667C26.6667 33.159 25.1743 31.6667 23.3333 31.6667H21.6667ZM6.66667 10H8.33333V18.3333C8.33333 19.0963 8.40656 19.8421 8.54638 20.5641C7.31713 19.4577 6.66667 17.5521 6.66667 15V10ZM31.6667 10V18.3333C31.6667 19.0963 31.5934 19.8421 31.4536 20.5641C32.6829 19.4577 33.3333 17.5521 33.3333 15V10H31.6667ZM11.6667 18.3333V8.33333H28.3333V18.3333C28.3333 22.9357 24.6024 26.6667 20 26.6667C15.3976 26.6667 11.6667 22.9357 11.6667 18.3333Z" fill="white"/>
</svg>
