<svg width="40" height="40" viewBox="0 0 40 40" fill="none" xmlns="http://www.w3.org/2000/svg">
<path fill-rule="evenodd" clip-rule="evenodd" d="M35 28.6641V11.3436L20 2.68335L5 11.3436V28.6641L20 37.3244L35 28.6641ZM8.33333 13.2681L20 6.53235L31.6667 13.2681V26.7396L20 33.4754L8.33333 26.7396V13.2681ZM20 28.3333C15.3976 28.3333 11.6667 24.6024 11.6667 20C11.6667 15.3976 15.3976 11.6667 20 11.6667C24.6024 11.6667 28.3333 15.3976 28.3333 20C28.3333 24.6024 24.6024 28.3333 20 28.3333ZM25 20C25 22.7614 22.7614 25 20 25C17.2386 25 15 22.7614 15 20C15 17.2386 17.2386 15 20 15C22.7614 15 25 17.2386 25 20Z" fill="white"/>
</svg>
