<svg width="40" height="40" viewBox="0 0 40 40" fill="none" xmlns="http://www.w3.org/2000/svg">
<path fill-rule="evenodd" clip-rule="evenodd" d="M11.6667 13.3334V19.1667L5 24.1667V33.3334H11.6667C11.6667 35.1743 13.159 36.6667 15 36.6667H18.3333V38.3334H21.6667V36.6667H25C26.8409 36.6667 28.3333 35.1743 28.3333 33.3334H35V24.1667L28.3333 19.1667V13.3334C28.3333 8.07323 25.1441 1.66669 20 1.66669C14.8559 1.66669 11.6667 8.07323 11.6667 13.3334ZM21.6667 33.3334H25V16.6667V13.3334C25 9.67875 22.6709 5.00002 20 5.00002C17.3291 5.00002 15 9.67875 15 13.3334V16.6667V33.3334H18.3333V23.3334H21.6667V33.3334ZM8.33333 25.8334L11.6667 23.3334V30H8.33333V25.8334ZM28.3333 30V23.3334L31.6667 25.8334V30H28.3333ZM20 18.3334C18.159 18.3334 16.6667 16.841 16.6667 15C16.6667 13.1591 18.159 11.6667 20 11.6667C21.8409 11.6667 23.3333 13.1591 23.3333 15C23.3333 16.841 21.8409 18.3334 20 18.3334Z" fill="white"/>
</svg>
